<?xml version="1.0" ?><svg id="Layer_1" style="enable-background:new 0 0 512 512;" version="1.1" viewBox="0 0 512 512" xml:space="preserve" xmlns="http://www.w3.org/2000/svg" xmlns:xlink="http://www.w3.org/1999/xlink"><style type="text/css">
	.st0{fill:#58A9DE;}
	.st1{fill:#E3F4FF;}
	.st2{fill:#FCC995;}
	.st3{fill:#FFFFFF;}
	.st4{fill:#FFD349;}
	.st5{fill:#EDC045;}
</style><g><g><path class="st0" d="M329.8,415.8H98.7c-9.9,0-18-8.1-18-18V100.1c0-9.9,8.1-18,18-18h231.1c9.9,0,18,8.1,18,18v297.6    C347.8,407.7,339.7,415.8,329.8,415.8z"/><path class="st1" d="M306.8,182H121.7c-4.1,0-7.5-3.3-7.5-7.5v-37.9c0-4.1,3.3-7.5,7.5-7.5h185.1c4.1,0,7.5,3.3,7.5,7.5v37.9    C314.3,178.7,310.9,182,306.8,182z"/><g><path class="st2" d="M137,215.5h-13.9c-4.9,0-8.9,4-8.9,8.9c0,4.9,4,8.9,8.9,8.9H137c4.9,0,8.9-4,8.9-8.9     C145.9,219.4,142,215.5,137,215.5z"/><path class="st2" d="M193.2,215.5h-13.9c-4.9,0-8.9,4-8.9,8.9c0,4.9,4,8.9,8.9,8.9h13.9c4.9,0,8.9-4,8.9-8.9     C202,219.4,198.1,215.5,193.2,215.5z"/><path class="st2" d="M249.3,215.5h-13.9c-4.9,0-8.9,4-8.9,8.9c0,4.9,4,8.9,8.9,8.9h13.9c4.9,0,8.9-4,8.9-8.9     C258.2,219.4,254.2,215.5,249.3,215.5z"/><path class="st2" d="M305.4,215.5h-13.9c-4.9,0-8.9,4-8.9,8.9c0,4.9,4,8.9,8.9,8.9h13.9c4.9,0,8.9-4,8.9-8.9     C314.3,219.4,310.3,215.5,305.4,215.5z"/></g><g><path class="st3" d="M137,266.6h-13.9c-4.9,0-8.9,4-8.9,8.9s4,8.9,8.9,8.9H137c4.9,0,8.9-4,8.9-8.9S142,266.6,137,266.6z"/><path class="st3" d="M193.2,266.6h-13.9c-4.9,0-8.9,4-8.9,8.9s4,8.9,8.9,8.9h13.9c4.9,0,8.9-4,8.9-8.9S198.1,266.6,193.2,266.6z"/><path class="st3" d="M249.3,266.6h-13.9c-4.9,0-8.9,4-8.9,8.9s4,8.9,8.9,8.9h13.9c4.9,0,8.9-4,8.9-8.9S254.2,266.6,249.3,266.6z"/><path class="st3" d="M291.4,284.4h13.9c4.9,0,8.9-4,8.9-8.9s-4-8.9-8.9-8.9h-13.9c-4.9,0-8.9,4-8.9,8.9S286.5,284.4,291.4,284.4z     "/><path class="st3" d="M137,299.1h-13.9c-4.9,0-8.9,4-8.9,8.9c0,4.9,4,8.9,8.9,8.9H137c4.9,0,8.9-4,8.9-8.9     C145.9,303.1,142,299.1,137,299.1z"/><path class="st3" d="M193.2,299.1h-13.9c-4.9,0-8.9,4-8.9,8.9c0,4.9,4,8.9,8.9,8.9h13.9c4.9,0,8.9-4,8.9-8.9     C202,303.1,198.1,299.1,193.2,299.1z"/><path class="st3" d="M249.3,299.1h-13.9c-4.9,0-8.9,4-8.9,8.9c0,4.9,4,8.9,8.9,8.9h13.9c4.9,0,8.9-4,8.9-8.9     C258.2,303.1,254.2,299.1,249.3,299.1z"/><path class="st3" d="M305.4,299.1h-13.9c-4.9,0-8.9,4-8.9,8.9c0,4.9,4,8.9,8.9,8.9h13.9c4.9,0,8.9-4,8.9-8.9     C314.3,303.1,310.3,299.1,305.4,299.1z"/><path class="st3" d="M137,331.5h-13.9c-4.9,0-8.9,4-8.9,8.9s4,8.9,8.9,8.9H137c4.9,0,8.9-4,8.9-8.9S142,331.5,137,331.5z"/><path class="st3" d="M193.2,331.5h-13.9c-4.9,0-8.9,4-8.9,8.9s4,8.9,8.9,8.9h13.9c4.9,0,8.9-4,8.9-8.9S198.1,331.5,193.2,331.5z"/><path class="st3" d="M249.3,331.5h-13.9c-4.9,0-8.9,4-8.9,8.9s4,8.9,8.9,8.9h13.9c4.9,0,8.9-4,8.9-8.9S254.2,331.5,249.3,331.5z"/><path class="st3" d="M305.4,331.5h-13.9c-4.9,0-8.9,4-8.9,8.9s4,8.9,8.9,8.9h13.9c4.9,0,8.9-4,8.9-8.9S310.3,331.5,305.4,331.5z"/><path class="st3" d="M137,364h-13.9c-4.9,0-8.9,4-8.9,8.9c0,4.9,4,8.9,8.9,8.9H137c4.9,0,8.9-4,8.9-8.9     C145.9,368,142,364,137,364z"/><path class="st3" d="M193.2,364h-13.9c-4.9,0-8.9,4-8.9,8.9c0,4.9,4,8.9,8.9,8.9h13.9c4.9,0,8.9-4,8.9-8.9     C202,368,198.1,364,193.2,364z"/><path class="st3" d="M249.3,364h-13.9c-4.9,0-8.9,4-8.9,8.9c0,4.9,4,8.9,8.9,8.9h13.9c4.9,0,8.9-4,8.9-8.9     C258.2,368,254.2,364,249.3,364z"/><path class="st3" d="M305.4,364h-13.9c-4.9,0-8.9,4-8.9,8.9c0,4.9,4,8.9,8.9,8.9h13.9c4.9,0,8.9-4,8.9-8.9     C314.3,368,310.3,364,305.4,364z"/></g></g><g><path class="st4" d="M357.8,377.6c-21.8-1.1-39.9-4.3-49.4-8.5c10.9-1.4,23.5-2.2,37-2.2c29.2,0,54.3,3.7,66.2,9    c-6.2,0.8-13,1.4-20.3,1.7c-5.4,0.3-11,0.4-16.8,0.4C368.8,378,363.2,377.8,357.8,377.6z"/><g><path class="st4" d="M419,382.7c0,7.9-26.6,14.4-61.6,15.7c-3.9,0.1-7.9,0.2-12,0.2c-4.1,0-8.1-0.1-12-0.2     c-34.9-1.2-61.6-7.8-61.6-15.7c0-8.8,32.9-15.9,73.5-15.9C386,366.9,419,374,419,382.7z"/><path class="st5" d="M357.4,398.4c-3.9,0.1-7.9,0.2-12,0.2c-4.1,0-8.1-0.1-12-0.2c-34.9-1.2-61.6-7.8-61.6-15.7V414     c0,7.5,24.2,13.8,56.8,15.4c5.4,0.3,11,0.4,16.8,0.4c5.8,0,11.4-0.1,16.8-0.4c32.5-1.6,56.8-7.9,56.8-15.4v-31.3     C419,390.6,392.3,397.1,357.4,398.4z"/></g><g><path class="st1" d="M431.3,337.5c0,7.9-26.6,14.4-61.6,15.7c-3.9,0.1-7.9,0.2-12,0.2c-4.1,0-8.1-0.1-12-0.2     c-34.9-1.2-61.6-7.8-61.6-15.7c0-8.8,32.9-15.9,73.5-15.9C398.4,321.7,431.3,328.8,431.3,337.5z"/><path class="st4" d="M357.8,321.7c-40.6,0-73.5,7.1-73.5,15.9c0,7.9,26.6,14.4,61.6,15.7c3.9,0.1,7.9,0.2,12,0.2     c4.1,0,8.1-0.1,12-0.2c34.9-1.2,61.6-7.8,61.6-15.7C431.3,328.8,398.4,321.7,357.8,321.7z"/><path class="st5" d="M431.3,337.5v31.3c0,1.2-0.6,2.3-1.7,3.4c-4.4,4.4-17.3,8.1-34.8,10.3c-6.2,0.8-13,1.4-20.3,1.7     c-5.4,0.3-11,0.4-16.8,0.4c-5.8,0-11.4-0.1-16.8-0.4c-21.8-1.1-39.9-4.3-49.4-8.5c-4.7-2.1-7.3-4.4-7.3-6.9v-31.3     c0,7.9,26.6,14.4,61.6,15.7c3.9,0.1,7.9,0.2,12,0.2c4.1,0,8.1-0.1,12-0.2C404.7,352,431.3,345.4,431.3,337.5z"/></g><g><path class="st1" d="M420.5,292.9c0,7.9-26.6,14.4-61.6,15.7c-3.9,0.1-7.9,0.2-12,0.2c-4.1,0-8.1-0.1-12-0.2     c-34.9-1.2-61.6-7.8-61.6-15.7c0-8.8,32.9-15.9,73.5-15.9S420.5,284.1,420.5,292.9z"/><path class="st4" d="M347,277c-40.6,0-73.5,7.1-73.5,15.9c0,7.9,26.6,14.4,61.6,15.7c3.9,0.1,7.9,0.2,12,0.2     c4.1,0,8.1-0.1,12-0.2c34.9-1.2,61.6-7.8,61.6-15.7C420.5,284.1,387.6,277,347,277z"/><path class="st5" d="M420.5,292.9v31.3c0,1.2-0.6,2.3-1.7,3.4c-4.4,4.4-17.3,8.1-34.8,10.3c-6.2,0.8-13,1.4-20.3,1.7     c-5.4,0.3-11,0.4-16.8,0.4c-5.8,0-11.4-0.1-16.8-0.4c-21.8-1.1-39.9-4.3-49.4-8.5c-4.7-2.1-7.3-4.4-7.3-6.9v-31.3     c0,7.9,26.6,14.4,61.6,15.7c3.9,0.1,7.9,0.2,12,0.2s8.1-0.1,12-0.2C393.9,307.3,420.5,300.7,420.5,292.9z"/></g><g><path class="st1" d="M431.3,257.8c0,7.9-26.6,14.4-61.6,15.7c-3.9,0.1-7.9,0.2-12,0.2c-4.1,0-8.1-0.1-12-0.2     c-34.9-1.2-61.6-7.8-61.6-15.7c0-8.8,32.9-15.9,73.5-15.9C398.4,241.9,431.3,249,431.3,257.8z"/><path class="st4" d="M357.8,241.9c-40.6,0-73.5,7.1-73.5,15.9c0,7.9,26.6,14.4,61.6,15.7c3.9,0.1,7.9,0.2,12,0.2     c4.1,0,8.1-0.1,12-0.2c34.9-1.2,61.6-7.8,61.6-15.7C431.3,249,398.4,241.9,357.8,241.9z"/><path class="st5" d="M431.3,257.8v31.3c0,1.2-0.6,2.3-1.7,3.4c-4.4,4.4-17.3,8.1-34.8,10.3c-6.2,0.8-13,1.4-20.3,1.7     c-5.4,0.3-11,0.4-16.8,0.4c-5.8,0-11.4-0.1-16.8-0.4c-21.8-1.1-39.9-4.3-49.4-8.5c-4.7-2.1-7.3-4.4-7.3-6.9v-31.3     c0,7.9,26.6,14.4,61.6,15.7c3.9,0.1,7.9,0.2,12,0.2s8.1-0.1,12-0.2C404.7,272.2,431.3,265.7,431.3,257.8z"/></g><g><path class="st1" d="M420,214.5c0,7.9-26.6,14.4-61.6,15.7c-3.9,0.1-7.9,0.2-12,0.2c-4.1,0-8.1-0.1-12-0.2     c-34.9-1.2-61.6-7.8-61.6-15.7c0-8.8,32.9-15.9,73.5-15.9C387,198.6,420,205.7,420,214.5z"/><path class="st4" d="M346.4,198.6c-40.6,0-73.5,7.1-73.5,15.9c0,7.9,26.6,14.4,61.6,15.7c3.9,0.1,7.9,0.2,12,0.2     c4.1,0,8.1-0.1,12-0.2c34.9-1.2,61.6-7.8,61.6-15.7C420,205.7,387,198.6,346.4,198.6z"/><path class="st5" d="M419.9,214.5v31.3c0,1.2-0.6,2.3-1.7,3.4c-4.4,4.4-17.3,8.1-34.8,10.3c-6.2,0.8-13,1.4-20.3,1.7     c-5.4,0.3-11,0.4-16.8,0.4c-5.8,0-11.4-0.1-16.8-0.4c-21.8-1.1-39.9-4.3-49.4-8.5c-4.7-2.1-7.3-4.4-7.3-6.9v-31.3     c0,7.9,26.6,14.4,61.6,15.7c3.9,0.1,7.9,0.2,12,0.2s8.1-0.1,12-0.2C393.3,228.9,419.9,222.4,419.9,214.5z"/></g></g></g></svg>